<svg width="25" height="25" viewBox="0 0 25 25" fill="none" xmlns="http://www.w3.org/2000/svg">
<path d="M12.4547 18.8242C11.5297 18.8282 10.6075 18.7252 9.70623 18.5172C9.43833 18.4568 9.17555 18.3755 8.92029 18.2742L9.55544 19.3594L9.80388 22.75C9.80388 23.1305 11.0117 23.4383 12.5008 23.4383C13.9898 23.4383 15.1976 23.1305 15.1976 22.75L15.3945 19.3227L15.9953 18.2711C15.7379 18.374 15.4727 18.4563 15.2023 18.5172C14.3013 18.7251 13.3793 18.8281 12.4547 18.8242V18.8242ZM16.0156 7.79141C14.8495 7.93642 13.6751 8.00454 12.5 7.99531C11.3249 8.00454 10.1505 7.93642 8.98435 7.79141C8.61396 7.74648 8.24806 7.67017 7.8906 7.56328C7.79751 7.5344 7.70729 7.49701 7.62107 7.45156L8.2031 12.8125C8.23018 12.7203 8.26039 12.6281 8.29373 12.5359C8.36124 12.3475 8.4395 12.1631 8.5281 11.9836C8.61569 11.8078 8.71378 11.6374 8.82185 11.4734C8.9238 11.3183 9.03658 11.1705 9.15935 11.0313C9.27058 10.9041 9.39352 10.7877 9.52654 10.6836C9.6432 10.592 9.77105 10.5156 9.90701 10.4563C10.0272 10.4047 10.1567 10.3781 10.2875 10.3781C10.4357 10.379 10.581 10.4201 10.7078 10.4969C10.8618 10.5946 10.9917 10.726 11.0875 10.8813C11.1131 10.9172 11.1307 10.9582 11.139 11.0016C11.1461 11.0394 11.1497 11.0779 11.15 11.1164C11.154 11.1884 11.1324 11.2596 11.089 11.3172C11.0723 11.3398 11.0505 11.3581 11.0254 11.3709C11.0003 11.3836 10.9726 11.3904 10.9445 11.3906C10.9164 11.3893 10.889 11.3815 10.8644 11.368C10.8398 11.3544 10.8185 11.3355 10.8023 11.3125C10.7466 11.2402 10.6974 11.1631 10.6554 11.082C10.6156 11.0044 10.5581 10.9372 10.4875 10.8859C10.4287 10.8461 10.3593 10.8249 10.2883 10.825C10.1576 10.832 10.0325 10.8804 9.93123 10.9633C9.79099 11.0688 9.66472 11.1916 9.55544 11.3289C9.42295 11.4927 9.30357 11.6667 9.19841 11.8492C9.08563 12.0425 8.98492 12.2427 8.89685 12.4484C8.81233 12.6445 8.7426 12.8466 8.68826 13.0531C8.63978 13.2275 8.61354 13.4073 8.61013 13.5883C8.61033 13.6426 8.61398 13.6969 8.62107 13.7508C8.62725 13.803 8.64094 13.854 8.66169 13.9023C8.67894 13.945 8.70565 13.9832 8.73982 14.0141C8.77625 14.044 8.82238 14.0596 8.86951 14.0578C8.94025 14.0545 9.00914 14.0342 9.07029 13.9984C9.15312 13.9538 9.23159 13.9015 9.30466 13.8422C9.38938 13.7741 9.47024 13.7013 9.54685 13.6242C9.6281 13.5435 9.70362 13.4615 9.77341 13.3781C9.8432 13.2948 9.90518 13.2151 9.95935 13.1391C10.0054 13.0761 10.0462 13.0095 10.0812 12.9398L10.3031 12.2758C10.3215 12.214 10.3587 12.1594 10.4094 12.1195C10.4486 12.0908 10.4958 12.0749 10.5445 12.0742C10.5671 12.0742 10.5895 12.0779 10.6109 12.0852C10.6341 12.0928 10.6552 12.1056 10.6728 12.1225C10.6903 12.1394 10.7039 12.16 10.7125 12.1828C10.7234 12.2112 10.7287 12.2415 10.7281 12.2719C10.7285 12.3574 10.7204 12.4427 10.7039 12.5266C10.6883 12.6058 10.6679 12.6841 10.6429 12.7609C10.6185 12.8365 10.5911 12.9122 10.5609 12.9883C10.5307 13.0643 10.5013 13.144 10.4726 13.2273C10.4586 13.256 10.4471 13.2858 10.4383 13.3164L10.3773 13.5047C10.3534 13.5781 10.3273 13.6625 10.2992 13.7578L10.2133 14.043C10.1836 14.1398 10.1554 14.2349 10.1289 14.3281C10.1023 14.4214 10.0781 14.5057 10.0562 14.5812L10.0023 14.7703C9.98826 14.8211 9.97888 14.8484 9.97576 14.8609C9.96606 14.8954 9.95325 14.9288 9.93748 14.9609C9.92015 14.9977 9.89949 15.0327 9.87576 15.0656C9.85365 15.0953 9.82733 15.1216 9.79763 15.1438C9.77266 15.1642 9.7416 15.1757 9.70935 15.1766C9.68805 15.1784 9.66665 15.1746 9.64722 15.1657C9.62778 15.1568 9.61097 15.1431 9.59841 15.1258C9.57024 15.0678 9.55836 15.0033 9.56404 14.9391V14.8992C9.5633 14.8852 9.5633 14.8711 9.56404 14.857C9.57416 14.7993 9.58932 14.7426 9.60935 14.6875C9.63175 14.6047 9.65779 14.5109 9.68747 14.4063C9.71716 14.3016 9.7505 14.1932 9.78748 14.0813L9.88435 13.7805C9.79998 13.8747 9.70857 13.9685 9.61013 14.0617C9.51479 14.1522 9.41352 14.2363 9.30701 14.3133C9.20923 14.3843 9.10453 14.4453 8.99451 14.4953C8.89959 14.54 8.79627 14.5639 8.69138 14.5656C8.59058 14.5684 8.49102 14.5429 8.40388 14.4922C8.38904 14.4836 8.37576 14.4734 8.36248 14.4633L8.68669 17.8633C8.77107 18.075 10.3601 18.5945 12.4562 18.5945C14.5523 18.5945 16.1429 18.0742 16.2258 17.8625L16.6945 13.8203L16.5828 13.9234C16.4622 14.0365 16.336 14.1434 16.2047 14.2438C16.0977 14.3265 15.9812 14.3963 15.8578 14.4516C15.7433 14.5009 15.6199 14.5259 15.4953 14.525C15.3956 14.5316 15.2967 14.5041 15.2148 14.4469C15.1823 14.4211 15.1564 14.3879 15.1392 14.3502C15.1219 14.3124 15.1139 14.2711 15.1156 14.2297V14.2086C15.1149 14.2005 15.1149 14.1924 15.1156 14.1844C15.1267 14.1149 15.152 14.0484 15.1898 13.9891C15.2371 13.9096 15.2893 13.8332 15.3461 13.7602C15.4065 13.681 15.4708 13.6008 15.539 13.5195C15.6073 13.4383 15.6705 13.3615 15.7289 13.2891C15.7807 13.2254 15.829 13.1589 15.8734 13.0898C15.9052 13.0469 15.9249 12.9961 15.9304 12.943C15.9308 12.9327 15.9289 12.9225 15.9247 12.9132C15.9205 12.9038 15.9142 12.8956 15.9062 12.8891C15.8831 12.8741 15.8556 12.8672 15.8281 12.8695C15.7596 12.8707 15.6922 12.8875 15.6312 12.9187C15.5591 12.9546 15.4916 12.9992 15.4304 13.0516C15.3615 13.1102 15.297 13.1739 15.2375 13.2422C15.1749 13.3136 15.116 13.3882 15.0609 13.4656C15.0062 13.5427 14.9562 13.6208 14.9109 13.7C14.8656 13.7792 14.8271 13.8513 14.7953 13.9164L14.7547 14.0039C14.737 14.0414 14.7179 14.0839 14.6976 14.1312C14.6773 14.1786 14.6554 14.2271 14.632 14.2766L14.5687 14.418L14.5172 14.5367L14.4851 14.6086C14.4789 14.6216 14.4659 14.6536 14.4461 14.7047L14.3828 14.8703L14.3047 15.0695L14.2304 15.2672L14.1695 15.4313C14.1523 15.4781 14.1406 15.5094 14.1359 15.5273C14.1205 15.5747 14.1017 15.621 14.0797 15.6656C14.0596 15.7067 14.0347 15.7453 14.0054 15.7805C13.9787 15.8121 13.9464 15.8386 13.9101 15.8586C13.8733 15.8787 13.8318 15.8889 13.7898 15.8883C13.7393 15.8904 13.6894 15.8762 13.6476 15.8477C13.6267 15.8278 13.6107 15.8034 13.6009 15.7762C13.5911 15.7491 13.5879 15.72 13.5914 15.6914C13.5915 15.6524 13.5962 15.6136 13.6054 15.5758C13.6151 15.536 13.6271 15.4969 13.6414 15.4586C13.6554 15.4195 13.6703 15.3805 13.6859 15.3453C13.7015 15.3102 13.7148 15.2734 13.7273 15.2391C13.8133 15.0505 13.9008 14.8617 13.9898 14.6727C14.0789 14.4836 14.1643 14.2961 14.2461 14.1102L14.2953 13.9953L14.2804 14.0102C14.1821 14.1048 14.0777 14.193 13.9679 14.2742C13.873 14.3458 13.7706 14.4068 13.6625 14.4562C13.5702 14.4995 13.4698 14.5226 13.3679 14.5242C13.3119 14.526 13.2561 14.5153 13.2047 14.493C13.1633 14.474 13.1273 14.445 13.1 14.4086C13.0726 14.3705 13.0534 14.3271 13.0437 14.2813C13.0437 14.2648 13.0375 14.2469 13.0351 14.2297C13.0074 14.2513 12.9793 14.2724 12.9508 14.293C12.8594 14.3584 12.7618 14.4146 12.6594 14.4609C12.5787 14.4997 12.4909 14.5213 12.4015 14.5242C12.3668 14.5252 12.3322 14.5188 12.3001 14.5053C12.268 14.4918 12.2392 14.4716 12.2156 14.4461C12.1606 14.3711 12.1353 14.2785 12.1445 14.1859C12.1464 14.0841 12.1593 13.9827 12.1828 13.8836C12.1374 13.9625 12.0851 14.0373 12.0265 14.107C11.9634 14.1833 11.8922 14.2525 11.814 14.3133C11.7328 14.3762 11.6427 14.427 11.5469 14.4641C11.4441 14.5034 11.3349 14.523 11.225 14.5219C11.1738 14.5221 11.1228 14.5156 11.0734 14.5023C11.0263 14.4897 10.9827 14.4665 10.9461 14.4344C10.9071 14.3988 10.8768 14.3547 10.8578 14.3055C10.8335 14.2408 10.8221 14.1721 10.8242 14.1031C10.8242 14.1031 10.8242 14.0727 10.8336 14.0172C10.8474 13.9283 10.8678 13.8406 10.8945 13.7547C10.9289 13.6349 10.981 13.4786 11.0508 13.2859C11.1205 13.0932 11.2216 12.8625 11.3539 12.5938C11.3783 12.5326 11.4181 12.4787 11.4695 12.4375C11.5107 12.4072 11.5605 12.3907 11.6117 12.3906C11.6352 12.3909 11.6586 12.3943 11.6812 12.4008C11.7052 12.4074 11.7279 12.4179 11.7484 12.432C11.7689 12.4461 11.7859 12.4645 11.7984 12.4859C11.8118 12.5097 11.8183 12.5368 11.8172 12.5641C11.8173 12.5823 11.815 12.6004 11.8101 12.618C11.7974 12.6616 11.7801 12.7038 11.7586 12.7438C11.7325 12.7958 11.7018 12.8552 11.6664 12.9219C11.631 12.9885 11.594 13.0607 11.5554 13.1383C11.5164 13.2154 11.4802 13.2953 11.4469 13.3781C11.4135 13.4608 11.3848 13.5453 11.3609 13.6313C11.3377 13.7127 11.3241 13.7966 11.3203 13.8812C11.3201 13.9138 11.3284 13.9459 11.3445 13.9742C11.3523 13.9879 11.3637 13.9991 11.3775 14.0065C11.3913 14.014 11.407 14.0174 11.4226 14.0164C11.5297 14.0152 11.6335 13.9796 11.7187 13.9148C11.8167 13.8429 11.9043 13.7577 11.9789 13.6617C12.0594 13.5593 12.1315 13.4507 12.1945 13.3367C12.2591 13.2211 12.3127 13.1151 12.3554 13.0187C12.3862 12.9519 12.4123 12.883 12.4336 12.8125C12.456 12.7435 12.4821 12.6757 12.5117 12.6094C12.5349 12.553 12.5662 12.5004 12.6047 12.4531C12.6203 12.4334 12.6403 12.4175 12.663 12.4066C12.6858 12.3958 12.7107 12.3903 12.7359 12.3906C12.7621 12.3897 12.7882 12.3951 12.8118 12.4063C12.8355 12.4176 12.8561 12.4345 12.8719 12.4555C12.9058 12.5003 12.9235 12.5555 12.9219 12.6117C12.9189 12.6598 12.908 12.707 12.8898 12.7516C12.8685 12.8109 12.8424 12.8786 12.8117 12.9547C12.781 13.0307 12.7455 13.1122 12.7054 13.1992C12.6674 13.2862 12.632 13.3742 12.5992 13.4633C12.5686 13.5494 12.5425 13.637 12.5211 13.7258C12.5006 13.8039 12.4899 13.8841 12.489 13.9648C12.4873 13.9789 12.4888 13.9931 12.4935 14.0064C12.4982 14.0198 12.506 14.0318 12.5161 14.0417C12.5262 14.0515 12.5385 14.0589 12.552 14.0632C12.5655 14.0675 12.5798 14.0686 12.5937 14.0664C12.6578 14.0625 12.7204 14.0452 12.7773 14.0156C12.8591 13.9764 12.9364 13.9285 13.0078 13.8727L13.0679 13.825C13.0881 13.7382 13.1143 13.6528 13.1461 13.5695C13.2018 13.4227 13.2583 13.2766 13.3156 13.1313L13.4718 12.7328L14.1945 10.9102C14.215 10.8469 14.2556 10.792 14.3101 10.7539C14.3538 10.7252 14.4047 10.7095 14.457 10.7086C14.5059 10.7085 14.5534 10.7254 14.5914 10.7562C14.6131 10.7757 14.6299 10.8 14.6405 10.8271C14.6511 10.8543 14.6551 10.8835 14.6523 10.9125C14.6518 10.9491 14.6449 10.9853 14.632 11.0195C14.6169 11.061 14.5997 11.1017 14.5804 11.1414C14.5409 11.2299 14.4935 11.3383 14.4383 11.4664C14.383 11.5945 14.3242 11.7339 14.2617 11.8844C14.1987 12.0349 14.1343 12.1911 14.0687 12.3531L13.8758 12.8289L13.6992 13.268L13.557 13.6281C13.5373 13.6777 13.5201 13.7283 13.5054 13.7797C13.4897 13.8303 13.4813 13.8829 13.4804 13.9359C13.4793 13.9594 13.4841 13.9828 13.4945 14.0039C13.5003 14.0129 13.5085 14.0201 13.5182 14.0246C13.5278 14.0292 13.5386 14.0309 13.5492 14.0297C13.5929 14.0269 13.6354 14.0149 13.6742 13.9945C13.7306 13.9676 13.7849 13.9365 13.8367 13.9016C13.895 13.863 13.9554 13.8188 14.0179 13.7688C14.0804 13.7188 14.1429 13.6667 14.2054 13.6125C14.2674 13.5604 14.3268 13.5068 14.3836 13.4516C14.4403 13.3964 14.4909 13.3469 14.5351 13.3031C14.5456 13.2926 14.5581 13.2843 14.5719 13.2789C14.5984 13.2008 14.6234 13.1227 14.6445 13.0445L14.6969 12.9C14.7198 12.8375 14.7459 12.7763 14.775 12.7164C14.801 12.6607 14.8336 12.6083 14.8718 12.5602C14.8855 12.542 14.903 12.5272 14.9232 12.5168C14.9433 12.5064 14.9656 12.5006 14.9883 12.5C15.0131 12.4977 15.0381 12.5005 15.0618 12.508C15.0855 12.5155 15.1075 12.5276 15.1265 12.5437C15.1419 12.5613 15.1535 12.5818 15.1609 12.6039C15.1683 12.626 15.1712 12.6494 15.1695 12.6727C15.169 12.6907 15.1674 12.7087 15.1648 12.7266C15.1648 12.7508 15.1578 12.7773 15.1531 12.8047L15.1375 12.8828C15.1337 12.9012 15.1285 12.9192 15.1219 12.9367C15.1807 12.8727 15.2442 12.8091 15.3125 12.7461C15.3793 12.6842 15.4503 12.627 15.525 12.575C15.5952 12.5259 15.6703 12.4842 15.7492 12.4508C15.8216 12.4198 15.8994 12.4036 15.9781 12.4031C16.031 12.4032 16.0836 12.4108 16.1344 12.4258C16.1839 12.4398 16.2307 12.4623 16.2726 12.4922C16.3133 12.5213 16.3471 12.5589 16.3718 12.6023C16.3985 12.65 16.4117 12.704 16.4101 12.7586C16.4082 12.8443 16.3883 12.9287 16.3515 13.0063C16.3101 13.0983 16.261 13.1866 16.2047 13.2703C16.1458 13.3589 16.0823 13.4451 16.014 13.5289C15.9458 13.6128 15.8817 13.6891 15.8219 13.7578L15.6711 13.9328C15.643 13.9603 15.6214 13.9936 15.6078 14.0305C15.6075 14.0511 15.6153 14.0711 15.6297 14.0859C15.65 14.102 15.6758 14.1096 15.7015 14.107C15.7444 14.1015 15.7853 14.086 15.8211 14.0617C15.8979 14.0146 15.9715 13.9624 16.0414 13.9055C16.1362 13.831 16.2562 13.7313 16.4015 13.6063C16.5015 13.5203 16.6179 13.418 16.75 13.3016L17.3812 7.45781C17.295 7.50328 17.2048 7.54068 17.1117 7.56953C16.7533 7.67444 16.3866 7.74867 16.0156 7.79141V7.79141ZM12.5 6.40625C9.77185 6.40625 7.56091 6.71094 7.56091 7.0875C7.56091 7.46406 9.7656 7.76719 12.5 7.76719C15.2344 7.76719 17.439 7.4625 17.439 7.08594C17.439 6.70937 15.225 6.40625 12.5 6.40625ZM14.4719 7.28672C14.4719 7.375 14.2094 7.44297 13.8851 7.44297C13.5609 7.44297 13.2984 7.37109 13.2984 7.28672C13.2984 7.20234 13.5609 7.13047 13.8851 7.13047C14.2094 7.13047 14.4695 7.19688 14.4695 7.28516L14.4719 7.28672Z" fill="#DA4648"/>
<path d="M13.4141 7.21415C13.4112 7.2183 13.4096 7.22317 13.4094 7.22821C13.4094 7.28524 13.6211 7.33133 13.8782 7.33133C14.1352 7.33133 14.3469 7.28524 14.3469 7.22821L14.9641 4.72821L17.4188 2.1368C17.4704 2.07821 17.3657 1.89618 17.1907 1.73993C17.0157 1.58368 16.8266 1.53134 16.768 1.59071L14.1579 4.34305L13.4141 7.21415Z" fill="#DA4648"/>
</svg>
