<svg width="25" height="25" viewBox="0 0 25 25" fill="none" xmlns="http://www.w3.org/2000/svg">
<path d="M2.13281 5.21094L12.3828 1.5625V23.4375L3.72656 18.6562L2.13281 5.21094Z" fill="#DE3641"/>
<path d="M12.3828 1.5625L22.8672 5.14844L21.1562 18.5937L12.3828 23.4375V1.5625Z" fill="#B13138"/>
<path d="M12.3828 4.01562L19.0469 18.2578H16.7734L15.3516 15.0078H12.3828V13.0703H14.5469L12.3828 8.59375L10.5625 13.0703H12.3828V15.0078H9.67187L8.39844 18.2578H5.94531L12.3828 4.01562Z" fill="white"/>
<path d="M17.6953 11.9453C18.831 11.9453 19.9412 12.2821 20.8855 12.913C21.8298 13.544 22.5658 14.4408 23.0004 15.4901C23.435 16.5393 23.5487 17.6939 23.3272 18.8077C23.1056 19.9216 22.5587 20.9448 21.7557 21.7478C20.9526 22.5509 19.9294 23.0978 18.8156 23.3194C17.7017 23.5409 16.5471 23.4272 15.4979 22.9926C14.4486 22.558 13.5518 21.822 12.9209 20.8777C12.2899 19.9334 11.9531 18.8232 11.9531 17.6875C11.9531 16.1646 12.5581 14.704 13.635 13.6272C14.7118 12.5503 16.1724 11.9453 17.6953 11.9453V11.9453Z" fill="#CC6699"/>
<path d="M21.2968 14.4063C21.039 13.3829 19.3437 13.0548 17.7421 13.6251C16.7394 13.9616 15.8129 14.4926 15.0156 15.1876C14.1328 16.0157 13.9921 16.7501 14.0546 17.0313C14.2578 18.0938 15.7109 18.7813 16.3046 19.2969C16.1328 19.3829 14.8437 20.0391 14.539 20.7032C14.4109 20.9118 14.3702 21.1625 14.4257 21.4009C14.4813 21.6393 14.6287 21.8462 14.8359 21.9766C15.2011 22.0652 15.5849 22.0375 15.9336 21.8974C16.2823 21.7574 16.5787 21.5119 16.7812 21.1954C16.948 20.9377 17.0525 20.6447 17.0864 20.3395C17.1203 20.0344 17.0827 19.7256 16.9765 19.4376C17.2651 19.3661 17.5647 19.3502 17.8593 19.3907C18.8671 19.5079 19.0625 20.1719 19.0234 20.3985C19.0058 20.4927 18.9681 20.5819 18.9128 20.6601C18.8575 20.7383 18.786 20.8037 18.7031 20.8516C18.6328 20.8985 18.6093 20.9141 18.6171 20.9454C18.625 20.9766 18.6562 20.9923 18.7187 20.9454C18.8706 20.8979 19.0044 20.8051 19.1022 20.6794C19.1999 20.5537 19.2569 20.4012 19.2656 20.2423C19.25 20.0561 19.1979 19.8749 19.1123 19.7089C19.0267 19.5429 18.9092 19.3954 18.7666 19.2748C18.624 19.1543 18.459 19.063 18.2811 19.0062C18.1031 18.9494 17.9158 18.9282 17.7296 18.9438C17.7026 18.9438 17.6765 18.9469 17.6515 18.9532C17.3472 18.9451 17.0436 18.9874 16.7531 19.0782L16.7062 19.0313C16.0578 18.3438 14.8625 17.8516 14.9093 16.9219C14.9093 16.586 15.0421 15.6954 17.2062 14.5782C18.9796 13.6954 20.4015 13.9376 20.6437 14.4766C20.9953 15.2579 19.8625 16.6798 18.0421 16.8829C17.8383 16.9241 17.6277 16.9189 17.4262 16.8675C17.2246 16.8161 17.0373 16.7199 16.8781 16.586C16.7843 16.4766 16.7687 16.4766 16.7296 16.4923C16.6906 16.5079 16.7296 16.6173 16.7296 16.6719C16.8001 16.7989 16.895 16.9106 17.009 17.0004C17.1231 17.0903 17.2538 17.1566 17.3937 17.1954C18.1061 17.3672 18.8544 17.3126 19.5343 17.0391C20.6796 16.6094 21.5546 15.4063 21.2968 14.4063V14.4063ZM16.5468 19.6094C16.6325 19.8895 16.6325 20.1888 16.5468 20.4688V20.6407C16.4781 20.7833 16.3886 20.915 16.2812 21.0313C16.1698 21.1855 16.0159 21.3039 15.8383 21.3719C15.6607 21.4399 15.4671 21.4545 15.2812 21.4141C15.0625 21.2969 15.1718 20.7735 15.5625 20.3673C15.8598 20.0722 16.2028 19.8269 16.5781 19.6407L16.5468 19.6094Z" fill="white"/>
</svg>
