<svg width="22" height="22" viewBox="0 0 22 22" fill="none" xmlns="http://www.w3.org/2000/svg">
<path d="M10.9946 1.83325C9.18156 1.83325 7.40928 2.37087 5.90182 3.37811C4.39437 4.38536 3.21946 5.817 2.52566 7.49199C1.83185 9.16698 1.65032 11.0101 2.00402 12.7882C2.35772 14.5664 3.23076 16.1998 4.51274 17.4817C5.79472 18.7637 7.42806 19.6368 9.20622 19.9905C10.9844 20.3442 12.8275 20.1626 14.5025 19.4688C16.1775 18.775 17.6091 17.6001 18.6164 16.0926C19.6236 14.5852 20.1612 12.8129 20.1612 10.9999C20.1612 9.79614 19.9241 8.60414 19.4634 7.49199C19.0028 6.37984 18.3276 5.36931 17.4764 4.51811C16.6252 3.6669 15.6146 2.99169 14.5025 2.53102C13.3903 2.07035 12.1983 1.83325 10.9946 1.83325ZM13.9096 15.7226C13.8753 15.8082 13.8232 15.8855 13.7566 15.9494C13.6901 16.0132 13.6106 16.062 13.5236 16.0926C13.4366 16.1231 13.3441 16.1347 13.2522 16.1266C13.1603 16.1184 13.0713 16.0907 12.9911 16.0453L10.5023 14.1111L8.90547 15.5851C8.8684 15.6125 8.82506 15.6301 8.77941 15.6363C8.73376 15.6426 8.68727 15.6372 8.64422 15.6208L8.95038 12.8809L8.95955 12.8892L8.96597 12.8351C8.96597 12.8351 13.4439 8.75775 13.6263 8.5845C13.8115 8.41125 13.7501 8.37367 13.7501 8.37367C13.7611 8.16284 13.4191 8.37367 13.4191 8.37367L7.48555 12.1907L5.01514 11.3492C5.01514 11.3492 4.63564 11.2135 4.59989 10.9138C4.5623 10.6168 5.02705 10.4554 5.02705 10.4554L14.851 6.55225C14.851 6.55225 15.6586 6.19292 15.6586 6.78875L13.9096 15.7226Z" fill="white"/>
</svg>
