<svg width="25" height="24" viewBox="0 0 25 24" fill="none" xmlns="http://www.w3.org/2000/svg">
<g clip-path="url(#clip0)">
<g clip-path="url(#clip1)">
<path d="M12 1.27222C5.9225 1.27222 1 6.19747 1 12.2722C1 17.1333 4.1515 21.2555 8.52125 22.7085C9.07125 22.812 9.27292 22.472 9.27292 22.1795C9.27292 21.9183 9.26375 21.2262 9.25917 20.3096C6.19933 20.9732 5.554 18.8337 5.554 18.8337C5.0535 17.5641 4.33025 17.225 4.33025 17.225C3.33383 16.543 4.40725 16.5567 4.40725 16.5567C5.51183 16.6337 6.09208 17.6897 6.09208 17.6897C7.07292 19.3718 8.667 18.886 9.29583 18.6045C9.39483 17.8932 9.67808 17.4083 9.9925 17.1333C7.54958 16.8583 4.982 15.9123 4.982 11.6975C4.982 10.4966 5.40825 9.5158 6.11408 8.7458C5.99033 8.46805 5.61908 7.34972 6.21033 5.83447C6.21033 5.83447 7.13158 5.5393 9.23533 6.96197C10.1153 6.71722 11.0503 6.59622 11.9853 6.59072C12.9203 6.59622 13.8553 6.71722 14.7353 6.96197C16.8253 5.5393 17.7466 5.83447 17.7466 5.83447C18.3378 7.34972 17.9666 8.46805 17.8566 8.7458C18.5578 9.5158 18.9841 10.4966 18.9841 11.6975C18.9841 15.9233 16.4128 16.8537 13.9653 17.1241C14.3503 17.4541 14.7078 18.1288 14.7078 19.1591C14.7078 20.6313 14.6941 21.8138 14.6941 22.1713C14.6941 22.4601 14.8866 22.8038 15.4503 22.6938C19.8513 21.251 23 17.126 23 12.2722C23 6.19747 18.0748 1.27222 12 1.27222" fill="white"/>
</g>
</g>
<defs>
<clipPath id="clip0">
<rect width="24" height="24" fill="white" transform="translate(0.733276)"/>
</clipPath>
<clipPath id="clip1">
<rect width="22" height="22" fill="white" transform="translate(1 1)"/>
</clipPath>
</defs>
</svg>
